<svg xmlns="http://www.w3.org/2000/svg" viewBox="0, 0, 400,400"><g><path d="M191.523 0.078 C 127.649 3.079,70.523 34.839,34.633 87.305 C 13.571 118.095,1.171 155.696,0.078 192.091 C -0.553 213.114,1.520 232.265,6.454 250.977 C 26.590 327.344,90.004 384.926,167.813 397.494 C 185.697 400.383,205.278 400.825,223.242 398.746 C 317.552 387.831,391.360 311.650,399.372 216.953 C 399.973 209.856,400.211 196.493,399.852 190.078 C 397.011 139.404,376.786 93.817,341.485 58.515 C 306.223 23.254,260.471 2.934,210.078 0.154 C 208.224 0.052,193.376 -0.009,191.523 0.078 M224.297 103.125 C 236.314 103.473,247.761 106.412,256.251 111.329 C 270.746 119.724,278.646 135.291,277.819 153.828 C 277.057 170.910,270.426 181.609,255.878 189.228 C 254.742 189.823,254.767 189.744,255.606 190.071 C 274.868 197.582,284.379 213.070,283.750 235.898 C 283.358 250.100,277.849 263.191,268.087 273.115 C 257.118 284.266,245.021 288.761,222.305 290.124 C 220.521 290.231,214.779 290.251,175.254 290.290 L 130.234 290.333 130.234 196.638 L 130.234 102.943 176.035 102.998 C 201.226 103.029,222.943 103.086,224.297 103.125 M167.578 156.134 L 167.578 176.899 191.543 176.848 C 216.401 176.795,217.341 176.782,219.783 176.449 C 228.927 175.200,235.073 172.058,237.892 167.189 C 241.599 160.790,241.459 149.927,237.596 144.102 C 234.655 139.667,230.421 137.621,221.523 136.335 C 215.770 135.503,214.723 135.474,188.613 135.416 L 167.578 135.369 167.578 156.134 M167.578 232.820 L 167.578 257.866 179.082 257.839 C 210.461 257.767,216.766 257.738,218.203 257.659 C 235.041 256.734,243.539 248.792,244.308 233.262 C 245.026 218.738,238.048 210.592,223.074 208.478 C 218.743 207.867,216.952 207.833,186.504 207.796 L 167.578 207.773 167.578 232.820 "></path></g></svg>