<svg xmlns="http://www.w3.org/2000/svg" viewBox="0, 0, 400,400"><g><path d="M189.600 0.156 C 182.524 0.563,176.939 1.106,171.050 1.959 C 90.773 13.587,25.175 73.092,5.700 151.950 C -1.627 181.619,-1.993 213.538,4.651 243.550 C 22.129 322.500,86.104 383.495,165.800 397.192 C 173.207 398.465,179.990 399.239,188.700 399.806 C 191.247 399.972,205.449 400.045,208.700 399.909 C 309.581 395.689,391.539 316.559,399.493 215.700 C 399.930 210.156,399.949 209.509,399.948 199.950 C 399.947 190.120,399.906 188.864,399.396 182.906 C 390.962 84.565,312.306 7.217,213.750 0.349 C 208.805 0.005,194.252 -0.112,189.600 0.156 M303.868 112.225 C 303.839 112.349,296.650 148.292,287.893 192.100 C 279.136 235.907,271.921 271.802,271.861 271.865 C 271.800 271.929,263.178 274.823,252.700 278.297 C 242.222 281.772,228.498 286.325,222.200 288.415 C 204.164 294.402,189.417 299.297,182.244 301.677 L 175.638 303.868 173.544 303.076 C 171.565 302.326,152.616 295.084,135.800 288.649 C 131.593 287.039,120.185 282.675,110.450 278.951 C 100.715 275.227,92.609 272.121,92.436 272.049 C 92.131 271.923,92.124 271.908,92.204 271.485 C 92.250 271.246,93.885 262.905,95.839 252.950 C 97.793 242.995,99.620 233.680,99.900 232.250 C 100.180 230.820,100.433 229.569,100.463 229.471 C 100.517 229.288,135.567 229.233,135.750 229.416 C 135.786 229.453,135.047 233.292,134.108 237.949 C 132.286 246.981,132.309 246.843,132.575 246.947 C 135.188 247.961,169.567 260.966,179.240 264.599 C 182.946 265.991,183.039 266.020,183.440 265.904 C 185.621 265.274,231.545 250.266,238.898 247.779 L 241.647 246.850 242.960 240.250 C 244.420 232.905,248.096 214.221,249.008 209.500 C 249.332 207.822,249.621 206.349,249.651 206.225 L 249.704 206.000 214.227 205.985 C 194.715 205.977,162.143 205.943,141.846 205.910 L 104.943 205.850 105.775 201.450 C 107.822 190.621,111.528 171.296,111.667 170.725 L 111.722 170.500 182.736 170.500 C 221.794 170.499,254.454 170.470,255.314 170.434 L 256.877 170.370 257.091 169.310 C 258.161 164.004,261.200 147.993,261.200 147.660 C 261.200 147.555,247.769 147.517,188.925 147.458 C 149.174 147.417,116.632 147.365,116.608 147.341 C 116.584 147.317,118.162 139.390,120.114 129.724 L 123.664 112.150 162.007 112.100 C 183.096 112.072,223.654 112.038,252.136 112.025 L 303.922 112.000 303.868 112.225 "></path></g></svg>