<svg xmlns="http://www.w3.org/2000/svg" viewBox="0, 0, 400,391.85750636132315"><g><path d="M172.519 1.186 C 19.686 18.454,-53.626 202.391,45.242 320.523 C 54.759 331.895,83.060 358.458,88.429 361.058 C 90.048 361.842,92.226 363.270,93.269 364.231 C 94.312 365.192,96.654 366.590,98.473 367.337 C 100.293 368.084,101.781 369.097,101.781 369.589 C 101.781 370.081,102.404 370.483,103.165 370.483 C 103.925 370.483,108.162 372.155,112.579 374.198 C 167.682 399.686,239.929 395.956,292.621 364.902 C 389.406 307.862,419.990 185.401,360.943 91.336 C 357.233 85.427,354.198 80.262,354.198 79.859 C 354.198 79.076,350.692 75.206,336.896 60.764 C 294.221 16.090,233.951 -5.754,172.519 1.186 M147.848 80.241 C 152.265 83.281,159.696 90.813,163.474 96.080 L 165.590 99.031 171.090 96.361 C 186.863 88.704,227.405 88.713,243.191 96.376 L 248.723 99.062 250.248 96.605 C 255.294 88.472,269.365 77.244,277.478 74.876 C 282.176 73.505,284.656 95.560,281.244 108.365 L 279.536 114.775 283.222 119.081 C 297.185 135.394,299.868 178.820,288.278 200.899 C 279.638 217.356,262.554 228.834,239.661 233.562 C 229.891 235.580,230.201 235.292,232.800 239.960 C 237.862 249.054,238.406 253.117,238.928 285.751 L 239.421 316.539 207.751 316.539 L 176.081 316.539 176.081 300.254 C 176.081 287.894,175.775 283.974,174.809 283.990 C 174.109 284.001,170.410 284.462,166.588 285.014 C 145.900 288.005,128.989 278.783,118.013 258.524 C 110.909 245.412,104.461 236.588,99.668 233.415 C 94.020 229.678,94.559 228.624,101.782 229.279 C 111.661 230.175,117.925 234.705,125.619 246.520 C 133.877 259.202,142.948 264.088,158.270 264.109 C 171.680 264.126,176.081 262.647,176.081 258.121 C 176.081 253.848,178.757 244.798,181.450 239.960 C 184.049 235.292,184.358 235.580,174.589 233.562 C 151.702 228.835,134.597 217.307,125.893 200.743 C 114.418 178.905,117.254 134.725,131.148 118.901 C 134.770 114.776,134.944 113.477,132.813 106.454 C 130.269 98.066,131.458 80.972,134.994 75.118 C 135.665 74.007,143.092 76.967,147.848 80.241 "></path></g></svg>