<svg xmlns="http://www.w3.org/2000/svg" viewBox="0, 0, 400,400"><g><path d="M189.600 0.156 C 182.524 0.563,176.939 1.106,171.050 1.959 C 90.773 13.587,25.175 73.092,5.700 151.950 C -1.627 181.619,-1.993 213.538,4.651 243.550 C 22.129 322.500,86.104 383.495,165.800 397.192 C 173.207 398.465,179.990 399.239,188.700 399.806 C 191.247 399.972,205.449 400.045,208.700 399.909 C 309.581 395.689,391.539 316.559,399.493 215.700 C 399.930 210.156,399.949 209.509,399.948 199.950 C 399.947 190.120,399.906 188.864,399.396 182.906 C 390.962 84.565,312.306 7.217,213.750 0.349 C 208.805 0.005,194.252 -0.112,189.600 0.156 M295.061 100.139 C 295.105 100.184,281.897 245.659,278.695 280.400 C 278.144 286.368,277.642 291.842,277.579 292.566 L 277.464 293.882 270.957 295.737 C 244.372 303.314,200.018 315.800,199.684 315.800 C 199.410 315.800,194.154 314.331,171.650 307.964 C 136.446 298.005,123.626 294.329,122.431 293.851 L 122.047 293.697 121.122 283.174 C 120.614 277.386,117.184 238.630,113.501 197.050 C 109.817 155.470,106.382 116.680,105.866 110.850 C 105.350 105.020,104.948 100.228,104.972 100.200 C 105.074 100.085,294.949 100.024,295.061 100.139 M141.119 139.574 L 140.289 139.608 140.346 140.029 C 140.378 140.261,141.347 151.138,142.501 164.200 C 146.026 204.106,146.692 211.526,146.756 211.589 C 146.789 211.623,165.240 211.665,187.758 211.684 C 210.276 211.703,228.700 211.734,228.700 211.754 C 228.700 211.774,228.406 214.976,228.047 218.870 C 227.688 222.764,227.081 229.393,226.698 233.600 C 226.315 237.808,225.974 241.486,225.940 241.775 L 225.877 242.299 225.364 242.454 C 224.234 242.795,207.032 247.473,200.713 249.158 L 199.675 249.435 198.763 249.214 C 197.230 248.841,178.066 243.634,174.770 242.694 C 174.011 242.477,173.376 242.300,173.359 242.300 C 173.320 242.300,171.700 224.053,171.700 223.607 C 171.700 223.532,168.178 223.500,159.850 223.500 L 148.000 223.500 148.000 224.075 C 148.000 224.704,148.225 227.802,149.351 242.750 C 150.177 253.715,150.724 260.843,150.740 260.863 C 150.745 260.870,155.700 262.258,161.750 263.947 C 197.040 273.797,199.652 274.516,200.000 274.468 C 200.590 274.389,248.065 261.396,248.302 261.249 C 248.347 261.221,248.410 261.074,248.441 260.924 C 248.658 259.870,255.068 190.347,255.124 188.439 L 255.150 187.550 211.832 187.525 L 168.514 187.500 168.454 186.975 C 168.390 186.422,166.892 167.910,166.685 165.126 C 166.619 164.232,166.599 163.467,166.641 163.426 C 166.683 163.384,187.188 163.337,212.208 163.320 C 247.563 163.297,257.700 163.264,257.700 163.170 C 257.700 163.104,257.993 159.630,258.350 155.450 C 259.419 142.960,259.687 139.654,259.634 139.601 C 259.578 139.545,142.454 139.518,141.119 139.574 "></path></g></svg>