<svg xmlns="http://www.w3.org/2000/svg" viewBox="0, 0, 400,400"><g><path d="M191.523 0.084 C 120.793 3.101,57.309 42.927,23.626 105.411 C 9.342 131.909,1.369 161.232,0.072 192.040 C -0.035 194.596,0.020 207.352,0.149 209.844 C 5.429 311.550,85.023 392.677,186.328 399.608 C 190.608 399.901,191.803 399.939,197.930 399.977 C 207.969 400.039,212.499 399.843,220.938 398.980 C 305.172 390.373,375.294 328.667,394.766 246.016 C 400.134 223.231,401.451 198.573,398.548 175.195 C 387.215 83.927,314.920 12.068,223.594 1.295 C 217.693 0.599,212.015 0.186,206.836 0.078 C 202.823 -0.007,193.557 -0.003,191.523 0.084 M223.562 81.191 C 223.501 81.331,223.253 81.878,223.011 82.407 C 209.956 110.918,231.528 149.092,265.859 158.234 C 287.589 164.020,305.325 160.271,316.085 147.617 C 317.254 146.242,317.254 146.246,316.111 148.201 C 306.677 164.342,294.735 172.237,277.148 173.958 C 275.356 174.134,268.854 174.160,266.953 173.999 C 260.022 173.414,256.349 172.671,251.328 170.842 C 221.938 160.133,204.074 130.671,210.819 104.033 C 212.078 99.060,214.590 93.424,217.211 89.688 C 218.343 88.074,223.595 80.938,223.650 80.938 C 223.663 80.938,223.624 81.052,223.562 81.191 M170.702 94.456 C 151.410 133.003,170.640 183.088,214.336 208.101 C 226.276 214.936,241.641 219.722,255.156 220.816 C 283.471 223.109,308.152 212.906,323.789 192.443 C 324.219 191.881,324.579 191.429,324.589 191.439 C 324.743 191.586,323.001 195.659,321.597 198.438 C 308.370 224.611,283.210 240.480,252.227 242.191 C 249.760 242.327,238.500 242.247,236.491 242.080 C 230.468 241.576,223.920 240.713,221.602 240.118 C 220.055 239.720,213.201 237.370,210.686 236.374 C 200.581 232.375,189.201 225.346,180.903 217.979 C 177.773 215.200,172.180 209.618,169.817 206.915 C 168.069 204.916,163.829 198.951,161.209 194.805 C 149.562 176.375,145.178 154.676,149.066 134.711 C 150.763 126.000,154.420 117.059,159.046 110.313 C 160.449 108.267,171.401 92.891,171.455 92.891 C 171.472 92.891,171.133 93.595,170.702 94.456 M106.683 116.816 C 101.729 127.069,98.624 138.603,97.623 150.469 C 97.358 153.611,97.306 155.047,97.306 159.297 C 97.306 199.563,119.108 238.837,155.859 264.778 C 170.097 274.828,190.977 284.151,205.938 287.139 C 216.789 289.307,225.504 290.191,236.016 290.191 C 240.942 290.191,242.130 290.153,245.938 289.879 C 275.783 287.730,300.891 275.607,317.405 255.371 C 318.027 254.608,318.547 253.984,318.559 253.984 C 318.643 253.984,317.125 257.248,316.088 259.297 C 308.742 273.813,296.988 287.803,283.787 297.742 C 257.922 317.215,225.166 324.297,187.188 318.628 C 180.360 317.609,178.594 317.170,170.703 314.535 C 154.185 309.017,139.057 300.511,125.201 288.951 C 119.459 284.160,116.048 280.937,110.976 275.507 C 105.826 269.995,99.796 262.300,96.141 256.576 C 92.160 250.341,91.219 248.686,88.203 242.617 C 76.691 219.450,72.536 193.830,76.609 171.133 C 78.969 157.983,84.376 145.096,91.524 135.586 C 93.931 132.384,107.290 115.313,107.389 115.313 C 107.401 115.313,107.083 115.989,106.683 116.816 "></path></g></svg>