<svg xmlns="http://www.w3.org/2000/svg" viewBox="0, 0, 400,400"><g><path d="M189.600 0.156 C 182.524 0.563,176.939 1.106,171.050 1.959 C 90.773 13.587,25.175 73.092,5.700 151.950 C -1.627 181.619,-1.993 213.538,4.651 243.550 C 22.129 322.500,86.104 383.495,165.800 397.192 C 173.207 398.465,179.990 399.239,188.700 399.806 C 191.247 399.972,205.449 400.045,208.700 399.909 C 309.581 395.689,391.539 316.559,399.493 215.700 C 399.930 210.156,399.949 209.509,399.948 199.950 C 399.947 190.120,399.906 188.864,399.396 182.906 C 390.962 84.565,312.305 7.217,213.750 0.349 C 208.805 0.005,194.252 -0.112,189.600 0.156 M261.200 120.199 C 272.193 120.702,280.739 122.277,289.450 125.405 C 292.830 126.619,295.924 127.966,295.853 128.193 C 295.825 128.279,294.185 133.998,292.208 140.900 C 288.001 155.582,287.988 155.629,287.909 155.721 C 287.875 155.760,287.218 155.522,286.449 155.191 C 271.584 148.797,254.729 146.917,244.450 150.505 C 236.637 153.232,232.627 159.071,233.740 166.099 C 234.899 173.414,240.662 177.429,261.250 185.266 C 279.256 192.120,289.207 198.831,295.549 208.400 C 305.549 223.487,304.420 245.287,292.889 259.768 C 279.261 276.883,249.861 283.968,218.493 277.699 C 210.124 276.026,198.746 272.289,196.452 270.459 L 196.157 270.224 198.093 262.437 C 200.822 251.465,203.208 242.062,203.286 241.979 C 203.352 241.907,203.822 242.101,207.400 243.674 C 226.428 252.040,248.493 253.704,258.747 247.545 C 263.941 244.425,266.342 240.146,266.347 234.000 C 266.355 224.487,260.764 219.693,241.453 212.653 C 224.321 206.408,213.533 199.634,206.243 190.547 C 200.049 182.825,197.073 173.164,197.803 163.150 C 199.791 135.889,225.369 118.560,261.200 120.199 M172.291 159.825 C 172.286 180.354,172.245 204.192,172.201 212.800 L 172.119 228.450 171.859 230.900 C 171.716 232.248,171.507 234.048,171.395 234.900 C 167.998 260.617,154.887 275.046,131.458 278.852 C 120.011 280.711,105.022 279.991,94.600 277.082 C 92.265 276.430,92.083 276.347,92.149 275.967 C 92.179 275.793,92.560 273.108,92.995 270.000 C 94.945 256.073,96.009 248.533,96.053 248.331 L 96.101 248.111 96.676 248.310 C 100.144 249.508,106.342 250.558,111.474 250.816 C 128.784 251.687,136.843 243.863,137.912 225.150 C 138.081 222.189,137.861 135.880,137.657 125.125 L 137.607 122.500 154.954 122.500 L 172.300 122.500 172.291 159.825 "></path></g></svg>