<svg xmlns="http://www.w3.org/2000/svg" viewBox="0, 0, 400,400"><g><path d="M191.523 0.084 C 120.791 3.101,57.326 42.914,23.626 105.411 C 9.349 131.886,1.369 161.237,0.072 192.040 C -0.035 194.596,0.020 207.352,0.149 209.844 C 0.708 220.611,2.007 230.809,4.107 240.916 C 22.077 327.409,95.272 392.167,183.203 399.368 C 189.153 399.856,191.052 399.934,197.930 399.977 C 207.969 400.039,212.499 399.843,220.938 398.980 C 302.227 390.674,370.785 332.758,392.762 253.828 C 399.788 228.592,401.794 201.336,398.548 175.195 C 387.215 83.927,314.920 12.068,223.594 1.295 C 217.693 0.599,212.015 0.186,206.836 0.078 C 202.823 -0.007,193.557 -0.003,191.523 0.084 M135.415 120.698 C 137.897 121.547,137.545 121.034,150.310 142.383 C 153.650 147.969,163.688 164.756,172.616 179.688 C 196.897 220.294,199.546 224.722,199.600 224.782 C 199.627 224.812,199.790 224.803,199.961 224.762 C 200.133 224.721,201.985 224.284,204.076 223.791 C 207.442 222.997,218.647 220.322,229.570 217.704 C 231.633 217.210,237.891 215.712,243.477 214.375 C 259.391 210.566,266.508 208.845,268.727 208.271 C 269.643 208.034,269.677 208.018,269.593 207.860 C 269.545 207.769,267.163 204.373,264.298 200.313 C 246.808 175.517,246.895 175.641,246.476 174.708 L 246.250 174.204 246.252 171.965 C 246.254 168.847,246.217 168.946,247.644 168.231 C 249.381 167.361,248.740 167.483,271.758 163.631 C 286.591 161.149,286.425 161.172,289.023 161.175 C 294.495 161.182,293.567 160.403,305.196 174.766 C 310.606 181.447,316.482 188.693,321.290 194.609 C 325.653 199.979,326.369 200.876,326.542 201.194 C 326.664 201.417,326.682 201.740,326.704 204.068 L 326.728 206.692 326.373 207.087 C 325.639 207.902,326.885 207.539,303.945 213.633 C 293.631 216.374,292.726 216.620,292.626 216.719 C 292.539 216.805,292.679 216.996,302.424 230.039 C 317.886 250.734,321.103 255.136,321.751 256.484 L 322.070 257.148 322.070 259.453 C 322.070 263.411,323.161 262.751,307.188 268.461 C 303.041 269.944,289.594 274.767,277.305 279.179 C 241.010 292.212,237.748 293.352,232.656 294.789 L 231.133 295.219 227.891 295.256 L 224.648 295.293 223.867 294.906 C 221.629 293.795,220.618 292.654,217.758 288.008 C 214.214 282.251,214.074 282.006,196.893 251.328 C 194.334 246.759,193.135 244.642,191.882 242.481 C 191.708 242.180,193.341 241.785,173.086 247.032 C 160.338 250.334,147.537 253.624,143.867 254.541 C 140.849 255.295,140.363 255.342,136.133 255.293 C 132.824 255.255,131.976 255.083,130.316 254.110 C 128.109 252.817,127.057 251.434,125.283 247.500 C 124.154 244.996,121.845 239.995,105.607 204.883 C 74.829 138.333,75.211 139.171,73.672 134.844 C 73.466 134.264,73.234 133.648,73.158 133.477 C 73.036 133.202,73.015 132.830,72.985 130.391 L 72.952 127.617 73.409 126.769 C 74.426 124.884,74.986 124.654,79.609 124.221 C 82.331 123.966,89.201 123.414,100.000 122.581 C 118.204 121.178,125.277 120.606,126.523 120.438 C 126.652 120.421,128.533 120.414,130.703 120.422 L 134.648 120.437 135.415 120.698 M126.133 131.650 C 125.789 131.686,124.154 131.823,122.500 131.954 C 118.409 132.279,98.067 134.017,93.242 134.454 C 91.824 134.582,90.594 134.688,90.508 134.689 C 90.184 134.691,90.139 134.792,90.300 135.163 C 90.587 135.828,92.209 139.186,97.031 149.102 C 108.093 171.847,126.431 209.729,133.809 225.078 C 134.605 226.732,136.430 230.529,137.865 233.514 C 139.300 236.500,140.506 238.975,140.546 239.015 C 140.630 239.098,141.050 239.003,150.273 236.794 C 154.012 235.899,162.730 233.827,169.648 232.188 C 181.056 229.487,183.156 228.986,184.082 228.743 L 184.375 228.666 184.177 228.275 C 183.617 227.171,180.623 221.979,161.876 189.609 C 130.564 135.542,128.588 132.147,128.239 131.816 C 127.940 131.533,127.534 131.501,126.133 131.650 M288.047 172.476 C 283.562 173.236,263.167 176.960,263.093 177.033 C 262.997 177.128,263.088 177.262,265.939 181.172 C 267.302 183.041,271.730 189.123,275.779 194.688 C 279.829 200.252,283.171 204.836,283.206 204.873 C 283.283 204.956,283.727 204.853,291.484 202.958 C 301.805 200.437,309.202 198.585,309.330 198.489 C 309.474 198.383,309.639 198.607,305.595 193.438 C 298.835 184.796,290.459 174.187,289.512 173.066 C 288.926 172.373,288.847 172.341,288.047 172.476 M274.883 220.555 C 270.937 221.601,262.131 223.893,246.250 228.008 C 234.258 231.116,209.836 237.456,208.418 237.831 C 207.913 237.964,207.500 238.112,207.500 238.160 C 207.500 238.382,222.731 264.488,227.000 271.583 C 229.539 275.803,230.999 278.047,231.206 278.047 C 231.341 278.047,236.116 276.436,249.727 271.799 C 270.779 264.627,287.353 259.011,296.914 255.812 C 302.853 253.824,303.281 253.676,303.281 253.605 C 303.280 253.524,301.792 251.469,290.657 236.172 C 284.855 228.201,279.850 221.311,279.535 220.859 C 278.901 219.953,278.607 219.606,278.481 219.617 C 278.436 219.620,276.816 220.043,274.883 220.555 "></path></g></svg>