<?xml version="1.0" encoding="iso-8859-1"?>
<!-- Generator: Adobe Illustrator 19.0.0, SVG Export Plug-In . SVG Version: 6.00 Build 0)  -->
<svg version="1.1" id="Layer_1" xmlns="http://www.w3.org/2000/svg" xmlns:xlink="http://www.w3.org/1999/xlink" x="0px" y="0px"
	 viewBox="0 0 512 512" style="enable-background:new 0 0 512 512;" xml:space="preserve">
<polygon style="fill:#167EE6;" points="239.426,317.467 44.892,512 433.959,512 "/>
<polygon style="fill:#2860CC;" points="432.846,512 239.302,317.342 239.302,512 "/>
<path style="fill:#B8C8D9;" d="M478.609,50.087c0-9.35-7.346-16.696-16.696-16.696H44.892l433.716,433.716V50.087z"/>
<path style="fill:#12B347;" d="M16.696,33.391C7.346,33.391,0,40.737,0,50.087v418.134L434.829,33.391H16.696z"/>
<path style="fill:#0F993E;" d="M473.766,38.233c-3.005-3.005-7.178-4.842-11.853-4.842H239.302v239.307L473.766,38.233z"/>
<path style="fill:#E6F3FF;" d="M262.901,249.099l215.708,215.708v30.497c0,9.35-7.346,16.696-16.696,16.696h-30.497L215.708,296.292
	L262.901,249.099z"/>
<path style="fill:#FFD500;" d="M478.609,50.087v30.719L47.081,512H16.696C7.345,512,0,504.653,0,495.304v-30.387l205.803-205.801
	L431.194,33.391h30.719C471.264,33.391,478.609,40.736,478.609,50.087z"/>
<path style="fill:#FFAA00;" d="M478.609,50.087v30.72L239.271,320.028v-94.458L431.193,33.391h30.72
	C471.264,33.391,478.609,40.737,478.609,50.087z"/>
<path style="fill:#FFFFFF;" d="M144.696,233.739c-36.815,0-66.783-29.968-66.783-66.783s29.968-66.783,66.783-66.783
	c9.032,0,17.804,1.793,26.022,5.283c8.478,3.62,12.424,13.434,8.804,21.914c-3.62,8.446-13.402,12.424-21.914,8.804
	c-4.043-1.729-8.412-2.609-12.912-2.609c-18.424,0-33.391,14.967-33.391,33.391s14.967,33.391,33.391,33.391
	c12.326,0,23.119-6.717,28.924-16.696h-12.228c-9.228,0-16.696-7.467-16.696-16.696s7.467-16.696,16.696-16.696h33.391
	c9.228,0,16.696,7.467,16.696,16.696C211.478,203.772,181.511,233.739,144.696,233.739z"/>
<path style="fill:#FF4B26;" d="M395.13,0c-64.435,0-116.87,52.434-116.87,116.87c0,20.543,5.413,40.728,15.619,58.369
	l86.804,150.327c2.967,5.152,8.478,8.348,14.446,8.348c5.968,0,11.479-3.196,14.446-8.348l86.804-150.327
	C506.587,157.598,512,137.413,512,116.87C512,52.434,459.566,0,395.13,0z"/>
<path style="fill:#D93F21;" d="M409.577,325.565l86.804-150.327C506.587,157.598,512,137.413,512,116.87
	C512,52.434,459.566,0,395.13,0v66.783c27.619,0,50.087,22.468,50.087,50.087s-22.468,50.087-50.087,50.087v166.957
	C401.097,333.913,406.609,330.717,409.577,325.565z"/>
<path style="fill:#BF381D;" d="M395.13,166.957c-27.619,0-50.087-22.468-50.087-50.087s22.468-50.087,50.087-50.087
	c27.619,0,50.087,22.468,50.087,50.087S422.749,166.957,395.13,166.957z"/>
<g>
</g>
<g>
</g>
<g>
</g>
<g>
</g>
<g>
</g>
<g>
</g>
<g>
</g>
<g>
</g>
<g>
</g>
<g>
</g>
<g>
</g>
<g>
</g>
<g>
</g>
<g>
</g>
<g>
</g>
</svg>
