<svg xmlns="http://www.w3.org/2000/svg" viewBox="0, 0, 400,400"><g><path d="M187.920 0.171 C 89.943 6.228,10.946 81.979,0.887 179.520 C -0.647 194.395,-0.304 213.199,1.772 228.000 C 8.382 275.126,31.216 317.777,66.954 349.756 C 98.957 378.392,140.053 396.041,183.280 399.713 C 186.700 400.003,213.284 400.002,216.960 399.711 C 313.379 392.082,391.354 314.267,399.688 217.360 C 400.281 210.463,400.012 185.394,399.276 178.880 C 392.460 118.629,361.004 66.749,311.040 33.357 C 282.046 13.979,251.223 3.437,214.400 0.302 C 211.753 0.077,191.099 -0.025,187.920 0.171 M315.349 116.234 C 316.743 116.955,317.023 117.929,316.912 121.680 C 316.633 131.172,313.714 135.760,303.200 143.239 C 289.015 153.329,289.121 153.143,283.759 177.360 C 275.894 212.878,268.299 229.853,256.080 239.220 C 254.400 240.508,249.702 243.360,249.261 243.360 C 249.222 243.360,249.313 242.190,249.462 240.760 C 250.232 233.381,250.228 232.000,249.440 232.000 C 248.861 232.000,248.721 232.254,246.965 236.482 C 239.512 254.430,229.235 265.466,214.692 271.136 C 210.054 272.945,205.407 273.911,201.303 273.919 L 200.605 273.920 201.943 272.482 C 211.499 262.204,218.049 248.881,219.996 235.760 C 221.400 226.305,219.857 226.995,216.064 237.520 C 214.334 242.321,211.964 246.406,210.212 247.607 C 208.963 248.463,208.047 248.561,201.360 248.553 C 194.598 248.545,194.314 248.522,181.200 246.959 C 167.211 245.292,168.216 245.371,160.960 245.371 C 146.838 245.370,142.247 246.910,126.148 257.049 C 116.095 263.381,116.073 263.393,109.093 266.659 C 94.834 273.331,92.821 273.981,84.613 274.562 C 77.120 275.092,77.229 273.143,85.298 262.275 C 86.703 260.384,87.827 258.756,87.795 258.658 C 87.731 258.457,86.867 257.887,84.877 256.733 C 84.131 256.301,82.398 255.041,81.026 253.933 C 77.137 250.794,76.031 249.992,74.451 249.162 L 72.981 248.391 73.645 247.539 C 77.653 242.395,83.355 241.627,98.720 244.163 C 106.699 245.479,106.898 245.501,111.120 245.501 C 115.560 245.501,115.998 245.403,117.643 244.043 C 119.624 242.405,123.205 238.203,126.474 233.680 C 132.742 225.008,141.272 217.532,149.733 213.296 C 152.345 211.988,163.720 207.946,176.605 203.747 C 180.540 202.465,186.640 200.478,190.160 199.333 C 218.564 190.088,229.010 184.033,238.520 171.299 C 241.566 167.221,243.055 164.881,248.564 155.520 C 257.763 139.887,261.540 134.850,267.914 129.714 C 275.171 123.867,281.659 121.730,294.480 120.965 C 300.955 120.578,302.966 120.125,306.840 118.181 C 310.872 116.156,313.871 115.470,315.349 116.234 "></path></g></svg>