<svg xmlns="http://www.w3.org/2000/svg" viewBox="0, 0, 400,400"><g><path d="M189.600 0.156 C 180.729 0.666,173.633 1.458,165.800 2.811 C 82.513 17.195,16.976 82.848,2.754 166.145 C -0.687 186.300,-0.984 208.020,1.903 228.329 C 15.434 323.490,95.376 395.945,191.200 399.898 C 237.817 401.821,282.790 387.990,319.650 360.396 C 367.237 324.771,396.021 271.353,399.802 211.650 C 399.967 209.040,400.042 195.497,399.912 191.650 C 398.658 154.457,385.926 116.655,364.193 85.600 C 329.224 35.631,274.519 4.631,213.750 0.349 C 208.874 0.005,194.247 -0.112,189.600 0.156 M203.900 72.352 C 206.397 72.734,208.115 73.326,210.320 74.564 C 219.302 79.611,295.428 123.548,303.600 128.402 C 309.349 131.817,312.476 136.257,313.670 142.700 C 313.874 143.800,314.009 251.287,313.811 254.700 C 313.468 260.604,310.521 266.052,305.800 269.510 C 305.146 269.990,299.251 273.435,282.600 283.071 C 277.183 286.206,268.318 291.336,262.900 294.472 C 257.483 297.607,245.445 304.572,236.150 309.951 C 208.474 325.967,208.972 325.688,206.877 326.382 C 203.010 327.664,197.575 327.772,194.156 326.636 C 192.550 326.102,192.929 326.311,181.900 319.869 C 164.139 309.495,157.982 305.827,157.121 305.105 C 155.746 303.953,155.783 303.289,157.250 302.753 C 157.470 302.673,158.580 302.268,159.717 301.854 C 163.327 300.537,166.009 299.330,169.777 297.327 C 173.271 295.469,172.773 295.486,175.450 297.131 C 179.702 299.743,197.693 310.488,198.529 310.915 C 199.276 311.296,200.414 311.234,201.317 310.762 C 203.594 309.573,292.885 258.066,294.972 256.738 C 295.496 256.405,295.952 255.873,296.309 255.179 C 296.496 254.815,296.500 253.816,296.490 204.329 C 296.479 150.331,296.454 145.398,296.188 144.995 C 295.842 144.472,295.412 144.172,293.169 142.892 C 291.120 141.722,266.619 127.440,249.350 117.350 C 223.878 102.465,204.182 91.036,201.850 89.787 C 200.040 88.817,200.479 88.673,193.850 92.402 C 186.766 96.387,178.986 100.832,131.750 127.878 C 101.414 145.247,104.386 143.464,103.796 144.654 L 103.550 145.150 103.494 165.000 C 103.428 188.030,103.475 250.520,103.559 252.800 C 103.640 254.976,103.768 255.213,105.409 256.221 C 106.201 256.707,124.972 267.549,128.150 269.356 C 132.008 271.549,134.183 272.471,136.900 273.064 C 138.429 273.398,143.152 273.338,144.400 272.969 C 148.988 271.611,152.024 268.308,153.060 263.550 C 153.224 262.797,153.238 259.551,153.301 208.700 C 153.355 165.489,153.394 154.570,153.495 154.250 C 153.676 153.679,154.527 152.855,155.100 152.696 C 155.747 152.517,168.253 152.517,168.900 152.696 C 169.469 152.854,170.322 153.678,170.508 154.250 C 170.614 154.575,170.644 163.498,170.672 202.050 C 170.710 254.078,170.647 265.301,170.308 267.642 C 168.087 282.961,158.814 290.658,142.600 290.642 C 135.814 290.635,131.746 289.592,124.150 285.912 C 121.178 284.472,98.580 271.604,96.200 269.996 C 91.907 267.096,88.791 262.482,87.659 257.349 L 87.395 256.150 87.422 199.350 L 87.450 142.550 87.865 141.000 C 89.298 135.645,92.384 131.441,96.800 128.830 C 107.850 122.295,191.166 74.313,192.442 73.750 C 195.591 72.360,200.236 71.793,203.900 72.352 M232.050 149.896 C 255.589 151.607,267.566 159.958,271.138 177.150 C 272.212 182.318,272.005 184.059,270.222 184.862 L 269.694 185.100 263.132 185.100 L 256.569 185.100 255.937 184.746 C 254.922 184.179,254.704 183.804,254.106 181.605 C 250.852 169.638,243.422 165.781,224.101 166.029 C 207.996 166.236,201.193 170.160,201.202 179.238 C 201.209 186.702,204.883 188.112,235.500 192.400 C 257.156 195.433,266.640 199.200,271.746 206.800 C 276.183 213.403,276.729 225.054,272.995 233.471 C 266.704 247.651,247.949 254.631,221.050 252.802 C 197.115 251.175,183.022 241.591,180.252 225.056 C 179.223 218.912,179.650 216.557,181.858 216.217 C 183.952 215.896,194.780 216.016,195.450 216.369 C 196.613 216.981,196.871 217.505,197.446 220.424 C 199.942 233.091,207.681 236.954,230.200 236.774 C 249.107 236.623,256.604 232.722,257.250 222.700 C 257.800 214.183,250.985 211.303,222.950 208.199 C 201.796 205.857,192.241 202.242,186.671 194.474 C 181.630 187.442,181.095 175.289,185.463 167.006 C 190.533 157.394,201.779 151.432,217.450 150.050 C 221.421 149.700,228.345 149.627,232.050 149.896 "></path></g></svg>