<svg xmlns="http://www.w3.org/2000/svg" viewBox="0, 0, 400,400"><g><path d="M191.523 0.084 C 120.791 3.101,57.326 42.914,23.626 105.411 C 9.349 131.886,1.369 161.237,0.072 192.040 C -0.035 194.596,0.020 207.352,0.149 209.844 C 5.429 311.550,85.024 392.677,186.328 399.608 C 190.608 399.901,191.803 399.939,197.930 399.977 C 207.969 400.039,212.499 399.843,220.938 398.980 C 302.228 390.674,370.785 332.758,392.762 253.828 C 399.788 228.592,401.794 201.336,398.548 175.195 C 387.215 83.927,314.920 12.068,223.594 1.295 C 217.693 0.599,212.015 0.186,206.836 0.078 C 202.823 -0.007,193.557 -0.003,191.523 0.084 M198.913 140.458 L 199.115 140.508 196.751 152.734 C 195.451 159.459,194.366 165.069,194.341 165.202 L 194.295 165.443 205.214 165.498 C 217.036 165.558,218.322 165.591,220.859 165.899 C 237.504 167.920,242.928 175.093,239.913 191.094 C 238.485 198.675,231.625 234.104,231.514 234.474 C 231.471 234.618,211.195 234.659,211.052 234.515 C 210.983 234.447,210.486 237.048,216.453 206.250 C 219.617 189.918,219.531 190.408,219.531 188.516 C 219.530 183.436,217.440 181.491,211.250 180.810 C 209.777 180.648,191.566 180.591,191.409 180.748 C 191.362 180.794,191.204 181.444,191.056 182.193 C 190.680 184.105,186.941 203.360,184.649 215.195 C 182.164 228.026,180.940 234.302,180.889 234.473 C 180.851 234.602,180.300 234.609,170.735 234.609 L 160.622 234.609 160.664 234.434 C 160.686 234.337,161.374 230.795,162.192 226.563 C 163.010 222.330,166.770 202.906,170.548 183.398 C 174.325 163.891,177.735 146.277,178.125 144.258 C 178.515 142.238,178.850 140.542,178.868 140.488 C 178.904 140.384,198.489 140.355,198.913 140.458 M134.219 165.547 C 156.955 166.023,167.798 178.969,163.633 200.664 C 162.079 208.757,158.654 215.616,153.359 221.241 C 146.814 228.194,140.801 231.640,132.227 233.354 C 127.294 234.340,123.829 234.526,110.313 234.530 C 106.037 234.531,102.042 234.555,101.434 234.582 L 100.330 234.633 100.094 235.852 C 98.534 243.906,95.867 257.604,95.676 258.538 C 95.573 259.045,95.463 259.485,95.433 259.515 C 95.403 259.545,90.809 259.580,85.226 259.592 L 75.074 259.613 75.116 259.436 C 75.139 259.338,76.232 253.686,77.543 246.875 C 83.911 213.822,93.210 165.653,93.241 165.566 C 93.283 165.450,128.762 165.433,134.219 165.547 M288.398 165.545 C 299.452 165.617,299.743 165.635,303.906 166.530 C 318.575 169.681,326.294 180.560,324.661 195.781 C 323.459 206.979,319.616 215.396,312.424 222.579 C 305.795 229.201,298.877 232.595,289.423 233.863 C 285.362 234.408,284.427 234.441,271.591 234.504 L 260.644 234.557 260.319 236.243 C 260.140 237.171,259.054 242.799,257.906 248.750 L 255.818 259.570 245.603 259.590 L 235.388 259.610 235.428 259.434 C 235.466 259.270,248.838 189.979,252.076 173.164 C 252.871 169.039,253.536 165.620,253.555 165.566 C 253.595 165.451,272.289 165.439,288.398 165.545 M111.085 180.202 C 110.941 180.247,110.990 180.004,107.226 199.414 C 105.867 206.418,104.426 213.834,104.022 215.895 C 103.618 217.956,103.307 219.661,103.330 219.684 C 103.530 219.882,120.339 219.640,122.031 219.415 C 129.703 218.393,134.351 216.119,137.612 211.794 C 142.604 205.171,144.879 192.075,142.026 186.393 C 140.202 182.760,135.838 180.755,128.789 180.312 C 127.504 180.231,111.311 180.130,111.085 180.202 M271.527 180.224 C 271.315 180.270,271.288 180.315,271.192 180.781 C 270.956 181.937,267.399 200.137,265.985 207.422 C 263.898 218.170,263.672 219.355,263.672 219.525 C 263.672 219.763,264.843 219.792,272.305 219.741 C 280.045 219.688,281.218 219.626,284.414 219.095 C 295.151 217.311,300.806 211.205,303.004 199.023 C 305.192 186.900,301.906 181.846,290.938 180.467 C 288.995 180.222,272.497 180.016,271.527 180.224 "></path></g></svg>