<svg xmlns="http://www.w3.org/2000/svg" viewBox="0, 0, 400,400"><g><path d="M189.600 0.156 C 182.524 0.563,176.939 1.106,171.050 1.959 C 90.773 13.587,25.176 73.091,5.700 151.950 C -1.627 181.619,-1.993 213.538,4.651 243.550 C 22.129 322.500,86.103 383.495,165.800 397.192 C 173.207 398.465,179.990 399.239,188.700 399.806 C 191.247 399.972,205.449 400.045,208.700 399.909 C 309.581 395.689,391.539 316.559,399.493 215.700 C 399.930 210.156,399.949 209.509,399.948 199.950 C 399.947 190.120,399.906 188.864,399.396 182.906 C 390.962 84.565,312.305 7.217,213.750 0.349 C 208.805 0.005,194.252 -0.112,189.600 0.156 M252.996 90.754 C 259.838 91.601,264.684 94.685,268.369 100.540 C 275.547 111.941,276.915 131.139,272.187 154.143 C 271.293 158.493,271.179 159.119,271.268 159.206 C 271.313 159.250,272.768 159.714,274.500 160.237 C 301.451 168.378,319.534 181.877,322.405 196.000 C 322.698 197.440,322.645 201.797,322.317 203.260 C 319.287 216.777,304.255 228.971,279.413 238.062 C 277.853 238.633,276.188 239.275,275.713 239.488 C 274.867 239.868,272.733 240.600,272.471 240.600 C 271.987 240.600,271.969 240.792,272.337 242.103 C 273.715 247.026,275.066 255.203,275.707 262.500 C 276.129 267.306,275.885 275.921,275.191 280.750 C 273.019 295.858,265.718 306.150,255.756 308.149 C 241.680 310.973,224.734 303.419,204.064 285.107 C 202.477 283.701,200.997 282.404,200.776 282.226 L 200.374 281.902 199.112 283.083 C 186.260 295.110,174.778 302.465,162.385 306.608 C 154.121 309.370,145.571 309.404,139.921 306.697 C 131.773 302.791,126.725 293.581,125.208 279.850 C 124.227 270.977,125.026 258.224,127.147 248.900 C 127.291 248.268,127.610 246.805,127.857 245.650 C 128.103 244.495,128.424 243.064,128.569 242.470 C 128.894 241.141,128.917 241.175,127.462 240.846 C 122.274 239.673,110.064 234.649,103.400 230.945 C 72.951 214.021,68.904 193.266,92.588 175.502 C 101.425 168.874,110.949 164.480,127.800 159.258 C 128.433 159.062,129.011 158.862,129.085 158.814 C 129.194 158.743,129.113 158.336,128.664 156.688 C 127.171 151.213,126.100 145.328,125.302 138.226 C 124.528 131.331,124.658 122.037,125.609 116.302 C 129.593 92.277,145.264 84.917,169.350 95.756 C 178.135 99.710,186.432 105.397,197.200 114.843 C 198.878 116.315,200.309 117.543,200.380 117.572 C 200.456 117.603,201.103 117.046,201.930 116.236 C 209.146 109.178,218.022 102.512,226.320 97.920 C 234.324 93.490,240.795 91.270,247.450 90.670 C 248.618 90.564,251.864 90.613,252.996 90.754 M247.800 101.205 C 239.934 101.917,229.146 107.302,217.629 116.263 C 213.989 119.095,207.550 124.812,207.550 125.211 C 207.550 125.244,208.253 126.032,209.113 126.961 C 214.130 132.383,220.887 140.850,226.950 149.312 L 228.350 151.266 230.450 151.488 C 239.510 152.444,249.079 153.941,258.682 155.903 C 260.074 156.187,261.234 156.399,261.260 156.373 C 261.453 156.180,262.768 150.042,263.300 146.850 C 267.305 122.837,263.519 104.297,254.050 101.553 C 252.675 101.154,250.001 101.005,247.800 101.205 M146.823 101.609 C 143.941 102.214,142.062 103.499,140.181 106.150 C 134.921 113.566,133.547 129.202,136.656 146.250 C 136.991 148.085,139.015 156.401,139.200 156.699 C 139.259 156.796,139.612 156.752,140.763 156.506 C 150.526 154.420,157.096 153.366,168.550 152.046 C 170.255 151.850,171.751 151.664,171.875 151.634 C 172.026 151.597,172.699 150.751,173.919 149.064 C 180.297 140.254,185.207 134.097,190.785 127.919 C 191.893 126.691,192.800 125.654,192.800 125.614 C 192.800 125.006,184.730 117.874,180.150 114.435 C 167.598 105.010,154.546 99.987,146.823 101.609 M198.980 133.825 C 195.381 137.732,185.123 150.157,185.328 150.362 C 185.364 150.397,186.193 150.371,187.171 150.304 C 191.340 150.017,209.551 150.077,213.500 150.390 C 214.023 150.432,214.465 150.455,214.484 150.441 C 214.588 150.364,208.551 142.653,205.606 139.100 C 203.598 136.678,200.146 132.800,199.998 132.800 C 199.958 132.800,199.500 133.261,198.980 133.825 M190.050 160.155 C 180.489 160.547,178.286 160.690,178.019 160.934 C 177.229 161.659,166.149 179.536,163.227 184.800 C 160.450 189.805,157.810 194.812,156.439 197.678 L 155.516 199.606 155.996 200.628 C 159.719 208.556,161.722 212.413,165.826 219.550 C 169.673 226.241,170.512 227.593,175.632 235.359 L 177.945 238.869 180.298 238.988 C 191.935 239.577,194.192 239.636,202.600 239.569 C 206.532 239.537,210.808 239.464,212.100 239.406 C 214.569 239.296,219.746 239.041,221.700 238.935 L 222.850 238.872 223.241 238.311 C 225.490 235.087,227.793 231.393,231.845 224.511 C 235.649 218.049,237.059 215.498,241.802 206.500 C 243.412 203.447,244.945 200.558,245.211 200.080 L 245.694 199.210 244.313 196.530 C 239.287 186.774,232.337 175.108,224.474 163.227 C 223.035 161.052,222.838 160.798,222.560 160.753 C 222.065 160.673,214.232 160.287,209.300 160.100 C 205.789 159.966,193.820 160.001,190.050 160.155 M235.655 162.392 C 235.624 162.443,236.198 163.399,236.931 164.517 C 238.630 167.108,239.834 169.066,241.502 171.950 C 242.234 173.215,243.470 175.330,244.250 176.650 C 246.604 180.638,248.231 183.698,249.297 186.144 C 249.971 187.689,250.012 187.714,250.409 186.833 C 253.401 180.206,258.341 166.801,257.939 166.399 C 257.466 165.926,242.840 163.173,237.500 162.552 C 236.757 162.466,236.052 162.373,235.931 162.347 C 235.811 162.321,235.687 162.341,235.655 162.392 M157.950 163.346 C 148.856 164.878,142.000 166.214,142.000 166.453 C 142.000 167.172,147.557 182.128,149.464 186.542 C 149.990 187.758,149.963 187.772,150.984 185.732 C 153.890 179.930,160.925 167.689,163.917 163.230 C 164.182 162.833,164.400 162.484,164.400 162.455 C 164.400 162.303,162.974 162.500,157.950 163.346 M127.250 170.156 C 121.512 172.120,120.185 172.595,117.750 173.551 C 108.467 177.196,100.247 181.955,95.250 186.577 C 86.948 194.254,85.550 200.262,90.387 207.462 C 95.185 214.604,104.965 221.431,118.300 226.947 C 121.118 228.113,131.051 231.600,131.553 231.600 C 131.621 231.600,131.874 230.884,132.145 229.925 C 134.032 223.249,137.621 213.795,142.338 203.079 L 143.690 200.007 142.936 198.279 C 138.941 189.119,135.682 180.694,132.667 171.726 C 132.108 170.062,131.605 168.705,131.550 168.710 C 131.495 168.714,129.560 169.365,127.250 170.156 M268.319 170.028 C 265.399 178.977,261.240 189.652,257.319 198.268 L 256.719 199.585 258.050 202.468 C 261.508 209.961,264.478 217.421,267.796 226.950 C 269.233 231.080,269.121 230.833,269.523 230.746 C 274.320 229.715,285.843 225.102,291.818 221.821 C 307.045 213.462,314.482 203.993,311.893 196.263 C 309.055 187.789,295.898 178.306,278.050 171.871 C 276.573 171.338,268.817 168.692,268.765 168.703 C 268.757 168.705,268.556 169.301,268.319 170.028 M201.750 177.803 C 216.939 178.812,226.389 195.336,219.686 209.164 C 212.742 223.490,193.015 225.805,183.077 213.460 C 170.932 198.373,182.378 176.516,201.750 177.803 M248.622 215.455 C 245.455 221.786,243.809 224.693,238.286 233.711 C 235.641 238.028,235.811 237.649,236.558 237.564 C 241.014 237.053,258.370 233.970,258.711 233.629 C 258.967 233.373,253.688 219.482,250.569 212.205 L 250.421 211.859 248.622 215.455 M148.273 215.276 C 145.397 222.056,141.600 232.630,141.600 233.860 C 141.600 234.096,143.501 234.539,147.963 235.343 C 153.551 236.350,163.039 237.670,164.052 237.581 L 164.409 237.550 162.590 234.750 C 157.587 227.045,156.375 225.004,152.829 218.313 C 149.764 212.529,149.747 212.499,149.563 212.501 C 149.501 212.502,148.920 213.751,148.273 215.276 M260.700 243.910 C 253.538 245.581,242.401 247.332,231.743 248.464 L 229.137 248.741 228.243 249.989 C 223.011 257.296,216.445 265.526,210.030 272.816 C 209.078 273.897,208.300 274.805,208.300 274.833 C 208.300 274.861,209.099 275.641,210.076 276.567 C 230.360 295.797,250.689 303.744,258.528 295.506 C 265.422 288.262,267.195 271.049,263.261 249.550 C 262.935 247.767,262.590 245.485,262.448 244.175 C 262.373 243.486,262.462 243.499,260.700 243.910 M138.749 244.525 C 138.698 244.666,138.222 246.913,137.504 250.400 C 132.490 274.730,135.129 292.873,144.391 297.732 C 149.492 300.409,160.197 298.171,170.850 292.200 C 178.191 288.086,184.179 283.595,192.750 275.773 L 193.349 275.226 192.095 273.888 C 186.527 267.947,180.436 260.548,174.652 252.700 C 173.619 251.298,172.597 249.914,172.383 249.625 C 172.113 249.261,171.924 249.100,171.767 249.100 C 171.305 249.100,166.467 248.692,164.000 248.444 C 156.052 247.648,148.114 246.402,141.076 244.847 C 138.831 244.351,138.812 244.348,138.749 244.525 M185.600 250.039 C 185.600 250.784,199.808 267.510,200.427 267.494 C 201.050 267.478,214.700 250.843,214.700 250.100 C 214.700 249.996,214.462 249.984,213.525 250.040 C 209.213 250.298,200.336 250.374,195.050 250.198 C 190.460 250.045,185.600 249.963,185.600 250.039 "></path></g></svg>