<svg xmlns="http://www.w3.org/2000/svg" viewBox="0, 0, 400,400"><g><path d="M189.600 0.156 C 182.524 0.563,176.939 1.106,171.050 1.959 C 90.773 13.587,25.175 73.092,5.700 151.950 C -1.627 181.619,-1.993 213.538,4.651 243.550 C 22.129 322.500,86.104 383.495,165.800 397.192 C 173.207 398.465,179.990 399.239,188.700 399.806 C 191.247 399.972,205.449 400.045,208.700 399.909 C 309.581 395.689,391.539 316.559,399.493 215.700 C 399.930 210.156,399.949 209.509,399.948 199.950 C 399.947 190.120,399.906 188.864,399.396 182.906 C 390.962 84.565,312.306 7.217,213.750 0.349 C 208.805 0.005,194.252 -0.112,189.600 0.156 M277.219 102.375 C 288.536 104.278,296.856 113.130,297.308 123.750 C 297.419 126.346,297.412 272.650,297.301 275.100 C 296.770 286.856,286.779 296.801,275.000 297.298 C 267.454 297.616,123.792 297.452,122.141 297.123 C 110.792 294.860,102.918 286.054,102.201 274.822 C 102.082 272.952,102.076 137.101,102.194 128.500 C 102.280 122.297,102.291 122.190,103.166 119.304 C 105.758 110.752,112.746 104.420,121.617 102.586 C 123.877 102.118,121.237 102.133,202.050 102.148 L 275.950 102.162 277.219 102.375 M140.850 132.793 C 136.986 132.861,136.942 132.864,136.050 133.134 C 132.117 134.323,129.105 137.337,127.940 141.250 L 127.672 142.150 127.595 146.900 C 127.494 153.090,127.494 246.910,127.595 253.100 L 127.672 257.850 127.940 258.740 C 129.092 262.568,131.877 265.429,135.763 266.774 L 136.850 267.150 157.350 267.150 L 177.850 267.150 178.750 266.869 C 182.750 265.619,185.549 262.841,186.829 258.850 L 187.150 257.850 187.150 200.000 L 187.150 142.150 186.829 141.150 C 185.553 137.172,182.895 134.508,178.889 133.192 L 177.723 132.809 161.236 132.767 C 152.169 132.744,142.995 132.755,140.850 132.793 M226.000 132.801 C 221.555 132.871,221.364 132.903,219.239 133.947 C 216.130 135.475,213.990 138.123,213.074 141.577 L 212.763 142.750 212.729 167.950 C 212.710 181.810,212.733 196.773,212.779 201.200 L 212.863 209.250 213.191 210.200 C 214.644 214.395,217.603 217.098,222.050 218.292 L 222.850 218.507 242.550 218.473 C 260.173 218.442,262.332 218.422,263.023 218.278 C 267.156 217.419,270.304 214.666,271.849 210.561 C 272.484 208.875,272.437 211.560,272.472 175.518 L 272.504 142.786 272.196 141.720 C 270.957 137.431,268.344 134.644,264.200 133.190 L 263.250 132.856 255.900 132.791 C 247.033 132.712,231.301 132.718,226.000 132.801 "></path></g></svg>