<svg xmlns="http://www.w3.org/2000/svg" viewBox="0, 0, 400,400"><g><path d="M192.539 0.052 C 133.594 2.387,79.915 29.605,43.113 75.820 C 21.967 102.376,7.757 134.658,2.426 168.251 C -0.574 187.158,-0.859 207.259,1.605 226.211 C 14.020 321.716,93.679 395.212,189.883 399.921 C 191.950 400.023,208.206 400.022,210.242 399.921 C 257.123 397.588,301.580 378.854,336.016 346.920 C 373.033 312.591,395.432 266.468,399.528 216.133 C 399.952 210.930,399.946 211.111,399.981 201.250 C 400.019 190.302,399.964 188.645,399.333 181.680 C 391.423 94.419,327.176 22.231,241.366 4.188 C 229.917 1.781,217.284 0.282,206.719 0.077 C 203.459 0.014,193.927 -0.003,192.539 0.052 M164.961 173.301 C 186.918 210.940,199.926 233.164,200.000 233.164 C 200.074 233.164,213.082 210.940,235.039 173.301 L 269.961 113.437 289.804 113.439 C 300.719 113.439,309.695 113.469,309.751 113.505 C 309.867 113.579,200.160 303.164,200.001 303.164 C 199.843 303.164,90.134 113.578,90.249 113.505 C 90.306 113.469,99.281 113.439,110.196 113.439 L 130.040 113.438 164.961 173.301 M185.930 129.226 C 190.983 137.889,196.064 146.608,197.222 148.601 C 199.643 152.772,199.945 153.281,200.000 153.281 C 200.057 153.281,199.914 153.525,206.035 143.019 C 209.094 137.771,214.219 128.977,217.425 123.477 L 223.255 113.477 242.780 113.453 C 253.519 113.440,262.591 113.452,262.941 113.479 L 263.576 113.528 263.286 114.010 C 263.126 114.275,248.836 138.952,231.530 168.848 C 214.224 198.743,200.036 223.203,200.002 223.203 C 199.953 223.203,189.269 204.799,176.872 183.359 C 176.114 182.049,167.099 166.475,156.838 148.750 C 146.577 131.025,137.847 115.943,137.438 115.234 C 137.030 114.525,136.629 113.851,136.549 113.735 L 136.402 113.525 136.736 113.495 C 136.920 113.478,145.997 113.467,156.907 113.471 L 176.743 113.477 185.930 129.226 "></path></g></svg>